<svg xmlns="http://www.w3.org/2000/svg" xmlns:xlink="http://www.w3.org/1999/xlink" viewBox="0,0,256,256" width="480px" height="480px" fill-rule="nonzero"><g fill="none" fill-rule="nonzero" stroke="none" stroke-width="1" stroke-linecap="butt" stroke-linejoin="miter" stroke-miterlimit="10" stroke-dasharray="" stroke-dashoffset="0" font-family="none" font-weight="none" font-size="none" text-anchor="none" style="mix-blend-mode: normal"><g transform="scale(5.33333,5.33333)"><path d="M22,35h4v6h-4z" fill="#2b454e"></path><path d="M35,44h-22v-2l9,-3h4l9,3z" fill="#2b454e"></path><path d="M24.002,36v0c-8.824,-0.001 -16.002,-7.179 -16.002,-16c0,-8.822 7.178,-16 16,-16c8.822,0 16,7.178 16,16c0,8.821 -7.177,15.999 -15.998,16z" fill="#2b454e"></path><path d="M35.313,25.657c0.392,0.391 0.392,1.023 0,1.414c0,0 -5.656,7.071 -8.485,2.828l-3.535,-7.778l-0.707,-0.707c-1.414,-2.828 -9.899,-7.071 -9.899,-7.071c-0.392,-0.391 -0.392,-1.023 0,-1.414c0,0 5.656,-7.071 8.485,-2.828l3.535,7.778l0.707,0.707c1.414,2.828 9.899,7.071 9.899,7.071z" fill="#2b454e"></path><path d="M29.657,8.687c0.391,-0.391 1.022,-0.391 1.414,0c0,0 7.071,5.656 2.828,8.485l-7.778,3.535l-0.707,0.707c-2.828,1.414 -7.071,9.899 -7.071,9.899c-0.391,0.391 -1.023,0.391 -1.414,0c0,0 -7.071,-5.656 -2.828,-8.485l7.778,-3.535l0.707,-0.707c2.828,-1.414 7.071,-9.899 7.071,-9.899z" fill="#2b454e"></path><path d="M24,23v0c-1.654,0 -3,-1.346 -3,-3c0,-1.654 1.346,-3 3,-3c1.654,0 3,1.346 3,3c0,1.654 -1.346,3 -3,3z" fill="#ffffff"></path></g></g></svg>